<?xml version="1.0" encoding="UTF-8" standalone="no"?>
<!DOCTYPE svg PUBLIC "-//W3C//DTD SVG 1.1//EN"
 "http://www.w3.org/Graphics/SVG/1.1/DTD/svg11.dtd">
<!-- Generated by graphviz version 2.44.1 (20200629.0846)
 -->
<!-- Title: G Pages: 1 -->
<svg width="317pt" height="332pt"
 viewBox="0.00 0.00 317.00 332.00" xmlns="http://www.w3.org/2000/svg" xmlns:xlink="http://www.w3.org/1999/xlink">
<g id="graph0" class="graph" transform="scale(1 1) rotate(0) translate(4 328)">
<title>G</title>
<polygon fill="white" stroke="transparent" points="-4,4 -4,-328 313,-328 313,4 -4,4"/>
<!-- accident allowance -->
<g id="node1" class="node">
<title>accident allowance</title>
<polygon fill="none" stroke="black" points="169,-324 47,-324 47,-288 169,-288 169,-324"/>
<text text-anchor="middle" x="108" y="-302.3" font-family="Times New Roman,serif" font-size="14.00">accident allowance</text>
</g>
<!-- disgrace sport -->
<g id="node3" class="node">
<title>disgrace sport</title>
<polygon fill="none" stroke="black" points="156,-252 60,-252 60,-216 156,-216 156,-252"/>
<text text-anchor="middle" x="108" y="-230.3" font-family="Times New Roman,serif" font-size="14.00">disgrace sport</text>
</g>
<!-- accident allowance&#45;&gt;disgrace sport -->
<g id="edge3" class="edge">
<title>accident allowance&#45;&gt;disgrace sport</title>
<path fill="none" stroke="black" d="M124,-287.83C124,-287.83 124,-262.41 124,-262.41"/>
<polygon fill="black" stroke="black" points="127.5,-262.41 124,-252.41 120.5,-262.41 127.5,-262.41"/>
<text text-anchor="middle" x="167" y="-263.92" font-family="Times New Roman,serif" font-size="14.00">blast reputation</text>
</g>
<!-- business eavesdrop -->
<g id="node4" class="node">
<title>business eavesdrop</title>
<polygon fill="none" stroke="black" points="300,-252 174,-252 174,-216 300,-216 300,-252"/>
<text text-anchor="middle" x="237" y="-230.3" font-family="Times New Roman,serif" font-size="14.00">business eavesdrop</text>
</g>
<!-- accident allowance&#45;&gt;business eavesdrop -->
<g id="edge7" class="edge">
<title>accident allowance&#45;&gt;business eavesdrop</title>
<path fill="none" stroke="black" d="M169.06,-306C176.06,-306 180.75,-306 180.75,-306 180.75,-306 180.75,-262.17 180.75,-262.17"/>
<polygon fill="black" stroke="black" points="184.25,-262.17 180.75,-252.17 177.25,-262.17 184.25,-262.17"/>
<text text-anchor="middle" x="129.25" y="-278.73" font-family="Times New Roman,serif" font-size="14.00">association scrape</text>
</g>
<!-- shoot stadium -->
<g id="node2" class="node">
<title>shoot stadium</title>
<polygon fill="none" stroke="black" points="282.5,-324 187.5,-324 187.5,-288 282.5,-288 282.5,-324"/>
<text text-anchor="middle" x="235" y="-302.3" font-family="Times New Roman,serif" font-size="14.00">shoot stadium</text>
</g>
<!-- disgrace sport&#45;&gt;accident allowance -->
<g id="edge8" class="edge">
<title>disgrace sport&#45;&gt;accident allowance</title>
<path fill="none" stroke="black" d="M92,-252.17C92,-252.17 92,-277.59 92,-277.59"/>
<polygon fill="black" stroke="black" points="88.5,-277.59 92,-287.59 95.5,-277.59 88.5,-277.59"/>
<text text-anchor="middle" x="46" y="-268.68" font-family="Times New Roman,serif" font-size="14.00">producer calorie</text>
</g>
<!-- equation steep -->
<g id="node6" class="node">
<title>equation steep</title>
<polygon fill="none" stroke="black" points="285.5,-180 188.5,-180 188.5,-144 285.5,-144 285.5,-180"/>
<text text-anchor="middle" x="237" y="-158.3" font-family="Times New Roman,serif" font-size="14.00">equation steep</text>
</g>
<!-- business eavesdrop&#45;&gt;equation steep -->
<g id="edge1" class="edge">
<title>business eavesdrop&#45;&gt;equation steep</title>
<path fill="none" stroke="black" d="M237,-215.83C237,-215.83 237,-190.41 237,-190.41"/>
<polygon fill="black" stroke="black" points="240.5,-190.41 237,-180.41 233.5,-190.41 240.5,-190.41"/>
<text text-anchor="middle" x="215.5" y="-191.92" font-family="Times New Roman,serif" font-size="14.00">go staff</text>
</g>
<!-- beneficiary rumour -->
<g id="node5" class="node">
<title>beneficiary rumour</title>
<polygon fill="none" stroke="black" points="170,-180 48,-180 48,-144 170,-144 170,-180"/>
<text text-anchor="middle" x="109" y="-158.3" font-family="Times New Roman,serif" font-size="14.00">beneficiary rumour</text>
</g>
<!-- orbit hour -->
<g id="node7" class="node">
<title>orbit hour</title>
<polygon fill="none" stroke="black" points="209,-108 137,-108 137,-72 209,-72 209,-108"/>
<text text-anchor="middle" x="173" y="-86.3" font-family="Times New Roman,serif" font-size="14.00">orbit hour</text>
</g>
<!-- beneficiary rumour&#45;&gt;orbit hour -->
<g id="edge2" class="edge">
<title>beneficiary rumour&#45;&gt;orbit hour</title>
<path fill="none" stroke="black" d="M153.5,-143.83C153.5,-143.83 153.5,-118.41 153.5,-118.41"/>
<polygon fill="black" stroke="black" points="157,-118.41 153.5,-108.41 150,-118.41 157,-118.41"/>
<text text-anchor="middle" x="123" y="-119.92" font-family="Times New Roman,serif" font-size="14.00">voice bible</text>
</g>
<!-- equation steep&#45;&gt;orbit hour -->
<g id="edge4" class="edge">
<title>equation steep&#45;&gt;orbit hour</title>
<path fill="none" stroke="black" d="M198.75,-143.83C198.75,-143.83 198.75,-118.41 198.75,-118.41"/>
<polygon fill="black" stroke="black" points="202.25,-118.41 198.75,-108.41 195.25,-118.41 202.25,-118.41"/>
<text text-anchor="middle" x="243.75" y="-119.92" font-family="Times New Roman,serif" font-size="14.00">angle protection</text>
</g>
<!-- squash overwhelm -->
<g id="node8" class="node">
<title>squash overwhelm</title>
<polygon fill="none" stroke="black" points="265,-36 145,-36 145,0 265,0 265,-36"/>
<text text-anchor="middle" x="205" y="-14.3" font-family="Times New Roman,serif" font-size="14.00">squash overwhelm</text>
</g>
<!-- equation steep&#45;&gt;squash overwhelm -->
<g id="edge6" class="edge">
<title>equation steep&#45;&gt;squash overwhelm</title>
<path fill="none" stroke="black" d="M237,-143.76C237,-143.76 237,-46.09 237,-46.09"/>
<polygon fill="black" stroke="black" points="240.5,-46.09 237,-36.09 233.5,-46.09 240.5,-46.09"/>
<text text-anchor="middle" x="273" y="-98.73" font-family="Times New Roman,serif" font-size="14.00">double swap</text>
</g>
<!-- orbit hour&#45;&gt;squash overwhelm -->
<g id="edge5" class="edge">
<title>orbit hour&#45;&gt;squash overwhelm</title>
<path fill="none" stroke="black" d="M177,-71.83C177,-71.83 177,-46.41 177,-46.41"/>
<polygon fill="black" stroke="black" points="180.5,-46.41 177,-36.41 173.5,-46.41 180.5,-46.41"/>
<text text-anchor="middle" x="144" y="-47.92" font-family="Times New Roman,serif" font-size="14.00">flavour lack</text>
</g>
</g>
</svg>
