<?xml version="1.0" encoding="UTF-8" standalone="no"?>
<!DOCTYPE svg PUBLIC "-//W3C//DTD SVG 1.1//EN"
 "http://www.w3.org/Graphics/SVG/1.1/DTD/svg11.dtd">
<!-- Generated by graphviz version 2.44.1 (20200629.0846)
 -->
<!-- Title: G Pages: 1 -->
<svg width="272pt" height="260pt"
 viewBox="0.00 0.00 271.50 260.00" xmlns="http://www.w3.org/2000/svg" xmlns:xlink="http://www.w3.org/1999/xlink">
<g id="graph0" class="graph" transform="scale(1 1) rotate(0) translate(4 256)">
<title>G</title>
<polygon fill="white" stroke="transparent" points="-4,4 -4,-256 267.5,-256 267.5,4 -4,4"/>
<!-- constitution maze -->
<g id="node1" class="node">
<title>constitution maze</title>
<polygon fill="none" stroke="black" points="159.25,-252 45.25,-252 45.25,-216 159.25,-216 159.25,-252"/>
<text text-anchor="middle" x="102.25" y="-230.3" font-family="Times New Roman,serif" font-size="14.00">constitution maze</text>
</g>
<!-- ticket entry -->
<g id="node2" class="node">
<title>ticket entry</title>
<polygon fill="none" stroke="black" points="107.25,-36 29.25,-36 29.25,0 107.25,0 107.25,-36"/>
<text text-anchor="middle" x="68.25" y="-14.3" font-family="Times New Roman,serif" font-size="14.00">ticket entry</text>
</g>
<!-- constitution maze&#45;&gt;ticket entry -->
<g id="edge1" class="edge">
<title>constitution maze&#45;&gt;ticket entry</title>
<path fill="none" stroke="black" d="M71,-215.96C71,-215.96 71,-46.15 71,-46.15"/>
<polygon fill="black" stroke="black" points="74.5,-46.15 71,-36.15 67.5,-46.15 74.5,-46.15"/>
<text text-anchor="middle" x="35.5" y="-134.85" font-family="Times New Roman,serif" font-size="14.00">seem affinity</text>
</g>
<!-- pill crusade -->
<g id="node3" class="node">
<title>pill crusade</title>
<polygon fill="none" stroke="black" points="184.25,-180 104.25,-180 104.25,-144 184.25,-144 184.25,-180"/>
<text text-anchor="middle" x="144.25" y="-158.3" font-family="Times New Roman,serif" font-size="14.00">pill crusade</text>
</g>
<!-- constitution maze&#45;&gt;pill crusade -->
<g id="edge2" class="edge">
<title>constitution maze&#45;&gt;pill crusade</title>
<path fill="none" stroke="black" d="M131.75,-215.83C131.75,-215.83 131.75,-190.41 131.75,-190.41"/>
<polygon fill="black" stroke="black" points="135.25,-190.41 131.75,-180.41 128.25,-190.41 135.25,-190.41"/>
<text text-anchor="middle" x="80.25" y="-191.92" font-family="Times New Roman,serif" font-size="14.00">notebook advance</text>
</g>
<!-- calculation dome -->
<g id="node4" class="node">
<title>calculation dome</title>
<polygon fill="none" stroke="black" points="207.75,-108 96.75,-108 96.75,-72 207.75,-72 207.75,-108"/>
<text text-anchor="middle" x="152.25" y="-86.3" font-family="Times New Roman,serif" font-size="14.00">calculation dome</text>
</g>
<!-- pill crusade&#45;&gt;calculation dome -->
<g id="edge3" class="edge">
<title>pill crusade&#45;&gt;calculation dome</title>
<path fill="none" stroke="black" d="M144.25,-143.83C144.25,-143.83 144.25,-118.41 144.25,-118.41"/>
<polygon fill="black" stroke="black" points="147.75,-118.41 144.25,-108.41 140.75,-118.41 147.75,-118.41"/>
<text text-anchor="middle" x="181.25" y="-119.92" font-family="Times New Roman,serif" font-size="14.00">blade replace</text>
</g>
<!-- calculation dome&#45;&gt;ticket entry -->
<g id="edge4" class="edge">
<title>calculation dome&#45;&gt;ticket entry</title>
<path fill="none" stroke="black" d="M102,-71.83C102,-71.83 102,-46.41 102,-46.41"/>
<polygon fill="black" stroke="black" points="105.5,-46.41 102,-36.41 98.5,-46.41 105.5,-46.41"/>
<text text-anchor="middle" x="51.5" y="-47.92" font-family="Times New Roman,serif" font-size="14.00">install engagement</text>
</g>
<!-- childish accident -->
<g id="node5" class="node">
<title>childish accident</title>
<polygon fill="none" stroke="black" points="235.25,-36 125.25,-36 125.25,0 235.25,0 235.25,-36"/>
<text text-anchor="middle" x="180.25" y="-14.3" font-family="Times New Roman,serif" font-size="14.00">childish accident</text>
</g>
<!-- calculation dome&#45;&gt;childish accident -->
<g id="edge5" class="edge">
<title>calculation dome&#45;&gt;childish accident</title>
<path fill="none" stroke="black" d="M166.5,-71.83C166.5,-71.83 166.5,-46.41 166.5,-46.41"/>
<polygon fill="black" stroke="black" points="170,-46.41 166.5,-36.41 163,-46.41 170,-46.41"/>
<text text-anchor="middle" x="215" y="-47.92" font-family="Times New Roman,serif" font-size="14.00">incapable happen</text>
</g>
</g>
</svg>
