<?xml version="1.0" encoding="UTF-8" standalone="no"?>
<!DOCTYPE svg PUBLIC "-//W3C//DTD SVG 1.1//EN"
 "http://www.w3.org/Graphics/SVG/1.1/DTD/svg11.dtd">
<!-- Generated by graphviz version 2.44.1 (20200629.0846)
 -->
<!-- Title: G Pages: 1 -->
<svg width="925pt" height="332pt"
 viewBox="0.00 0.00 925.00 332.00" xmlns="http://www.w3.org/2000/svg" xmlns:xlink="http://www.w3.org/1999/xlink">
<g id="graph0" class="graph" transform="scale(1 1) rotate(0) translate(4 328)">
<title>G</title>
<polygon fill="white" stroke="transparent" points="-4,4 -4,-328 921,-328 921,4 -4,4"/>
<!-- call cylinder -->
<g id="node1" class="node">
<title>call cylinder</title>
<polygon fill="none" stroke="black" points="389.25,-324 306.25,-324 306.25,-288 389.25,-288 389.25,-324"/>
<text text-anchor="middle" x="347.75" y="-302.3" font-family="Times New Roman,serif" font-size="14.00">call cylinder</text>
</g>
<!-- key superior -->
<g id="node3" class="node">
<title>key superior</title>
<polygon fill="none" stroke="black" points="126.75,-252 40.75,-252 40.75,-216 126.75,-216 126.75,-252"/>
<text text-anchor="middle" x="83.75" y="-230.3" font-family="Times New Roman,serif" font-size="14.00">key superior</text>
</g>
<!-- call cylinder&#45;&gt;key superior -->
<g id="edge1" class="edge">
<title>call cylinder&#45;&gt;key superior</title>
<path fill="none" stroke="black" d="M306.21,-306C231.86,-306 83.75,-306 83.75,-306 83.75,-306 83.75,-262.17 83.75,-262.17"/>
<polygon fill="black" stroke="black" points="87.25,-262.17 83.75,-252.17 80.25,-262.17 87.25,-262.17"/>
<text text-anchor="middle" x="145.06" y="-309.8" font-family="Times New Roman,serif" font-size="14.00">snatch fur</text>
</g>
<!-- snuggle flourish -->
<g id="node5" class="node">
<title>snuggle flourish</title>
<polygon fill="none" stroke="black" points="399.75,-252 295.75,-252 295.75,-216 399.75,-216 399.75,-252"/>
<text text-anchor="middle" x="347.75" y="-230.3" font-family="Times New Roman,serif" font-size="14.00">snuggle flourish</text>
</g>
<!-- call cylinder&#45;&gt;snuggle flourish -->
<g id="edge2" class="edge">
<title>call cylinder&#45;&gt;snuggle flourish</title>
<path fill="none" stroke="black" d="M347.75,-287.83C347.75,-287.83 347.75,-262.41 347.75,-262.41"/>
<polygon fill="black" stroke="black" points="351.25,-262.41 347.75,-252.41 344.25,-262.41 351.25,-262.41"/>
<text text-anchor="middle" x="319.25" y="-263.92" font-family="Times New Roman,serif" font-size="14.00">sport past</text>
</g>
<!-- exposure threat -->
<g id="node13" class="node">
<title>exposure threat</title>
<polygon fill="none" stroke="black" points="783.75,-180 681.75,-180 681.75,-144 783.75,-144 783.75,-180"/>
<text text-anchor="middle" x="732.75" y="-158.3" font-family="Times New Roman,serif" font-size="14.00">exposure threat</text>
</g>
<!-- call cylinder&#45;&gt;exposure threat -->
<g id="edge3" class="edge">
<title>call cylinder&#45;&gt;exposure threat</title>
<path fill="none" stroke="black" d="M389.37,-306C482.88,-306 701.5,-306 701.5,-306 701.5,-306 701.5,-190.24 701.5,-190.24"/>
<polygon fill="black" stroke="black" points="705,-190.24 701.5,-180.24 698,-190.24 705,-190.24"/>
<text text-anchor="middle" x="577.82" y="-309.8" font-family="Times New Roman,serif" font-size="14.00">tread fog</text>
</g>
<!-- if ambition -->
<g id="node2" class="node">
<title>if ambition</title>
<polygon fill="none" stroke="black" points="823.75,-324 747.75,-324 747.75,-288 823.75,-288 823.75,-324"/>
<text text-anchor="middle" x="785.75" y="-302.3" font-family="Times New Roman,serif" font-size="14.00">if ambition</text>
</g>
<!-- dramatic confession -->
<g id="node7" class="node">
<title>dramatic confession</title>
<polygon fill="none" stroke="black" points="850.25,-252 721.25,-252 721.25,-216 850.25,-216 850.25,-252"/>
<text text-anchor="middle" x="785.75" y="-230.3" font-family="Times New Roman,serif" font-size="14.00">dramatic confession</text>
</g>
<!-- if ambition&#45;&gt;dramatic confession -->
<g id="edge4" class="edge">
<title>if ambition&#45;&gt;dramatic confession</title>
<path fill="none" stroke="black" d="M785.75,-287.83C785.75,-287.83 785.75,-262.41 785.75,-262.41"/>
<polygon fill="black" stroke="black" points="789.25,-262.41 785.75,-252.41 782.25,-262.41 789.25,-262.41"/>
<text text-anchor="middle" x="761.25" y="-263.92" font-family="Times New Roman,serif" font-size="14.00">flour dry</text>
</g>
<!-- lift calorie -->
<g id="node8" class="node">
<title>lift calorie</title>
<polygon fill="none" stroke="black" points="140.25,-180 69.25,-180 69.25,-144 140.25,-144 140.25,-180"/>
<text text-anchor="middle" x="104.75" y="-158.3" font-family="Times New Roman,serif" font-size="14.00">lift calorie</text>
</g>
<!-- key superior&#45;&gt;lift calorie -->
<g id="edge5" class="edge">
<title>key superior&#45;&gt;lift calorie</title>
<path fill="none" stroke="black" d="M98,-215.83C98,-215.83 98,-190.41 98,-190.41"/>
<polygon fill="black" stroke="black" points="101.5,-190.41 98,-180.41 94.5,-190.41 101.5,-190.41"/>
<text text-anchor="middle" x="49" y="-191.92" font-family="Times New Roman,serif" font-size="14.00">material aquarium</text>
</g>
<!-- wagon wood -->
<g id="node4" class="node">
<title>wagon wood</title>
<polygon fill="none" stroke="black" points="234.25,-252 145.25,-252 145.25,-216 234.25,-216 234.25,-252"/>
<text text-anchor="middle" x="189.75" y="-230.3" font-family="Times New Roman,serif" font-size="14.00">wagon wood</text>
</g>
<!-- wagon wood&#45;&gt;lift calorie -->
<g id="edge6" class="edge">
<title>wagon wood&#45;&gt;lift calorie</title>
<path fill="none" stroke="black" d="M148.75,-215.97C148.75,-196.42 148.75,-168 148.75,-168 148.75,-168 147.9,-168 147.9,-168"/>
<polygon fill="black" stroke="black" points="150.27,-164.5 140.27,-168 150.27,-171.5 150.27,-164.5"/>
<text text-anchor="middle" x="183.75" y="-195.36" font-family="Times New Roman,serif" font-size="14.00">scrap public</text>
</g>
<!-- high spray -->
<g id="node16" class="node">
<title>high spray</title>
<polygon fill="none" stroke="black" points="251.75,-108 177.75,-108 177.75,-72 251.75,-72 251.75,-108"/>
<text text-anchor="middle" x="214.75" y="-86.3" font-family="Times New Roman,serif" font-size="14.00">high spray</text>
</g>
<!-- wagon wood&#45;&gt;high spray -->
<g id="edge7" class="edge">
<title>wagon wood&#45;&gt;high spray</title>
<path fill="none" stroke="black" d="M190.42,-215.76C190.42,-215.76 190.42,-118.09 190.42,-118.09"/>
<polygon fill="black" stroke="black" points="193.92,-118.09 190.42,-108.09 186.92,-118.09 193.92,-118.09"/>
<text text-anchor="middle" x="170.17" y="-155.73" font-family="Times New Roman,serif" font-size="14.00">deal cupboard</text>
</g>
<!-- model fade -->
<g id="node10" class="node">
<title>model fade</title>
<polygon fill="none" stroke="black" points="386.25,-180 307.25,-180 307.25,-144 386.25,-144 386.25,-180"/>
<text text-anchor="middle" x="346.75" y="-158.3" font-family="Times New Roman,serif" font-size="14.00">model fade</text>
</g>
<!-- snuggle flourish&#45;&gt;model fade -->
<g id="edge8" class="edge">
<title>snuggle flourish&#45;&gt;model fade</title>
<path fill="none" stroke="black" d="M333.58,-215.83C333.58,-215.83 333.58,-190.41 333.58,-190.41"/>
<polygon fill="black" stroke="black" points="337.08,-190.41 333.58,-180.41 330.08,-190.41 337.08,-190.41"/>
<text text-anchor="middle" x="280.08" y="-191.92" font-family="Times New Roman,serif" font-size="14.00">communist theorist</text>
</g>
<!-- approval unlawful -->
<g id="node12" class="node">
<title>approval unlawful</title>
<polygon fill="none" stroke="black" points="663.75,-180 547.75,-180 547.75,-144 663.75,-144 663.75,-180"/>
<text text-anchor="middle" x="605.75" y="-158.3" font-family="Times New Roman,serif" font-size="14.00">approval unlawful</text>
</g>
<!-- snuggle flourish&#45;&gt;approval unlawful -->
<g id="edge9" class="edge">
<title>snuggle flourish&#45;&gt;approval unlawful</title>
<path fill="none" stroke="black" d="M393,-215.86C393,-209.54 393,-204 393,-204 393,-204 576.75,-204 576.75,-204 576.75,-204 576.75,-190.06 576.75,-190.06"/>
<polygon fill="black" stroke="black" points="580.25,-190.06 576.75,-180.06 573.25,-190.06 580.25,-190.06"/>
<text text-anchor="middle" x="520.92" y="-192.8" font-family="Times New Roman,serif" font-size="14.00">indirect hold</text>
</g>
<!-- likely software -->
<g id="node6" class="node">
<title>likely software</title>
<polygon fill="none" stroke="black" points="515.25,-252 418.25,-252 418.25,-216 515.25,-216 515.25,-252"/>
<text text-anchor="middle" x="466.75" y="-230.3" font-family="Times New Roman,serif" font-size="14.00">likely software</text>
</g>
<!-- likely software&#45;&gt;model fade -->
<g id="edge10" class="edge">
<title>likely software&#45;&gt;model fade</title>
<path fill="none" stroke="black" d="M450.58,-215.94C450.58,-204.56 450.58,-192 450.58,-192 450.58,-192 359.92,-192 359.92,-192 359.92,-192 359.92,-190.14 359.92,-190.14"/>
<polygon fill="black" stroke="black" points="363.42,-190.14 359.92,-180.14 356.42,-190.14 363.42,-190.14"/>
<text text-anchor="middle" x="380.79" y="-195.8" font-family="Times New Roman,serif" font-size="14.00">film improve</text>
</g>
<!-- revolution advertise -->
<g id="node11" class="node">
<title>revolution advertise</title>
<polygon fill="none" stroke="black" points="529.25,-180 404.25,-180 404.25,-144 529.25,-144 529.25,-180"/>
<text text-anchor="middle" x="466.75" y="-158.3" font-family="Times New Roman,serif" font-size="14.00">revolution advertise</text>
</g>
<!-- likely software&#45;&gt;revolution advertise -->
<g id="edge11" class="edge">
<title>likely software&#45;&gt;revolution advertise</title>
<path fill="none" stroke="black" d="M482.92,-215.83C482.92,-215.83 482.92,-190.41 482.92,-190.41"/>
<polygon fill="black" stroke="black" points="486.42,-190.41 482.92,-180.41 479.42,-190.41 486.42,-190.41"/>
<text text-anchor="middle" x="457.92" y="-191.92" font-family="Times New Roman,serif" font-size="14.00">find host</text>
</g>
<!-- likely software&#45;&gt;approval unlawful -->
<g id="edge12" class="edge">
<title>likely software&#45;&gt;approval unlawful</title>
<path fill="none" stroke="black" d="M515.37,-228C555.45,-228 605.75,-228 605.75,-228 605.75,-228 605.75,-190.03 605.75,-190.03"/>
<polygon fill="black" stroke="black" points="609.25,-190.03 605.75,-180.03 602.25,-190.03 609.25,-190.03"/>
<text text-anchor="middle" x="553.04" y="-231.8" font-family="Times New Roman,serif" font-size="14.00">tent short</text>
</g>
<!-- dramatic confession&#45;&gt;approval unlawful -->
<g id="edge13" class="edge">
<title>dramatic confession&#45;&gt;approval unlawful</title>
<path fill="none" stroke="black" d="M720.84,-240C679.91,-240 634.75,-240 634.75,-240 634.75,-240 634.75,-190.09 634.75,-190.09"/>
<polygon fill="black" stroke="black" points="638.25,-190.09 634.75,-180.09 631.25,-190.09 638.25,-190.09"/>
<text text-anchor="middle" x="652.84" y="-228.8" font-family="Times New Roman,serif" font-size="14.00">dangerous digress</text>
</g>
<!-- dramatic confession&#45;&gt;exposure threat -->
<g id="edge14" class="edge">
<title>dramatic confession&#45;&gt;exposure threat</title>
<path fill="none" stroke="black" d="M752.5,-215.83C752.5,-215.83 752.5,-190.41 752.5,-190.41"/>
<polygon fill="black" stroke="black" points="756,-190.41 752.5,-180.41 749,-190.41 756,-190.41"/>
<text text-anchor="middle" x="701" y="-191.92" font-family="Times New Roman,serif" font-size="14.00">grandfather flower</text>
</g>
<!-- brain edge -->
<g id="node14" class="node">
<title>brain edge</title>
<polygon fill="none" stroke="black" points="875.75,-180 801.75,-180 801.75,-144 875.75,-144 875.75,-180"/>
<text text-anchor="middle" x="838.75" y="-158.3" font-family="Times New Roman,serif" font-size="14.00">brain edge</text>
</g>
<!-- dramatic confession&#45;&gt;brain edge -->
<g id="edge16" class="edge">
<title>dramatic confession&#45;&gt;brain edge</title>
<path fill="none" stroke="black" d="M826,-215.83C826,-215.83 826,-190.41 826,-190.41"/>
<polygon fill="black" stroke="black" points="829.5,-190.41 826,-180.41 822.5,-190.41 829.5,-190.41"/>
<text text-anchor="middle" x="871.5" y="-191.92" font-family="Times New Roman,serif" font-size="14.00">widen substitute</text>
</g>
<!-- explode miracle -->
<g id="node20" class="node">
<title>explode miracle</title>
<polygon fill="none" stroke="black" points="673.75,-36 569.75,-36 569.75,0 673.75,0 673.75,-36"/>
<text text-anchor="middle" x="621.75" y="-14.3" font-family="Times New Roman,serif" font-size="14.00">explode miracle</text>
</g>
<!-- dramatic confession&#45;&gt;explode miracle -->
<g id="edge15" class="edge">
<title>dramatic confession&#45;&gt;explode miracle</title>
<path fill="none" stroke="black" d="M792.75,-215.96C792.75,-164.04 792.75,-18 792.75,-18 792.75,-18 683.98,-18 683.98,-18"/>
<polygon fill="black" stroke="black" points="683.98,-14.5 673.98,-18 683.98,-21.5 683.98,-14.5"/>
<text text-anchor="middle" x="762.25" y="-66.4" font-family="Times New Roman,serif" font-size="14.00">reserve fee</text>
</g>
<!-- wander ignore -->
<g id="node15" class="node">
<title>wander ignore</title>
<polygon fill="none" stroke="black" points="152.25,-108 57.25,-108 57.25,-72 152.25,-72 152.25,-108"/>
<text text-anchor="middle" x="104.75" y="-86.3" font-family="Times New Roman,serif" font-size="14.00">wander ignore</text>
</g>
<!-- lift calorie&#45;&gt;wander ignore -->
<g id="edge17" class="edge">
<title>lift calorie&#45;&gt;wander ignore</title>
<path fill="none" stroke="black" d="M104.75,-143.83C104.75,-143.83 104.75,-118.41 104.75,-118.41"/>
<polygon fill="black" stroke="black" points="108.25,-118.41 104.75,-108.41 101.25,-118.41 108.25,-118.41"/>
<text text-anchor="middle" x="65.75" y="-119.92" font-family="Times New Roman,serif" font-size="14.00">casualty grow</text>
</g>
<!-- lift calorie&#45;&gt;high spray -->
<g id="edge18" class="edge">
<title>lift calorie&#45;&gt;high spray</title>
<path fill="none" stroke="black" d="M140.7,-156C161.69,-156 184.08,-156 184.08,-156 184.08,-156 184.08,-118.03 184.08,-118.03"/>
<polygon fill="black" stroke="black" points="187.58,-118.03 184.08,-108.03 180.58,-118.03 187.58,-118.03"/>
<text text-anchor="middle" x="136.88" y="-144.8" font-family="Times New Roman,serif" font-size="14.00">domestic breast</text>
</g>
<!-- concert yearn -->
<g id="node9" class="node">
<title>concert yearn</title>
<polygon fill="none" stroke="black" points="288.75,-180 196.75,-180 196.75,-144 288.75,-144 288.75,-180"/>
<text text-anchor="middle" x="242.75" y="-158.3" font-family="Times New Roman,serif" font-size="14.00">concert yearn</text>
</g>
<!-- concert yearn&#45;&gt;high spray -->
<g id="edge19" class="edge">
<title>concert yearn&#45;&gt;high spray</title>
<path fill="none" stroke="black" d="M224.25,-143.83C224.25,-143.83 224.25,-118.41 224.25,-118.41"/>
<polygon fill="black" stroke="black" points="227.75,-118.41 224.25,-108.41 220.75,-118.41 227.75,-118.41"/>
<text text-anchor="middle" x="189.25" y="-119.92" font-family="Times New Roman,serif" font-size="14.00">navy replace</text>
</g>
<!-- grandmother reservoir -->
<g id="node17" class="node">
<title>grandmother reservoir</title>
<polygon fill="none" stroke="black" points="416.75,-108 276.75,-108 276.75,-72 416.75,-72 416.75,-108"/>
<text text-anchor="middle" x="346.75" y="-86.3" font-family="Times New Roman,serif" font-size="14.00">grandmother reservoir</text>
</g>
<!-- concert yearn&#45;&gt;grandmother reservoir -->
<g id="edge20" class="edge">
<title>concert yearn&#45;&gt;grandmother reservoir</title>
<path fill="none" stroke="black" d="M282.75,-143.83C282.75,-143.83 282.75,-118.41 282.75,-118.41"/>
<polygon fill="black" stroke="black" points="286.25,-118.41 282.75,-108.41 279.25,-118.41 286.25,-118.41"/>
<text text-anchor="middle" x="331.25" y="-119.92" font-family="Times New Roman,serif" font-size="14.00">productive brand</text>
</g>
<!-- model fade&#45;&gt;grandmother reservoir -->
<g id="edge21" class="edge">
<title>model fade&#45;&gt;grandmother reservoir</title>
<path fill="none" stroke="black" d="M346.75,-143.83C346.75,-143.83 346.75,-118.41 346.75,-118.41"/>
<polygon fill="black" stroke="black" points="350.25,-118.41 346.75,-108.41 343.25,-118.41 350.25,-118.41"/>
<text text-anchor="middle" x="383.25" y="-134.92" font-family="Times New Roman,serif" font-size="14.00">stick railroad</text>
</g>
<!-- release allowance -->
<g id="node18" class="node">
<title>release allowance</title>
<polygon fill="none" stroke="black" points="712.25,-108 599.25,-108 599.25,-72 712.25,-72 712.25,-108"/>
<text text-anchor="middle" x="655.75" y="-86.3" font-family="Times New Roman,serif" font-size="14.00">release allowance</text>
</g>
<!-- revolution advertise&#45;&gt;release allowance -->
<g id="edge22" class="edge">
<title>revolution advertise&#45;&gt;release allowance</title>
<path fill="none" stroke="black" d="M473,-143.83C473,-122.5 473,-90 473,-90 473,-90 588.93,-90 588.93,-90"/>
<polygon fill="black" stroke="black" points="588.93,-93.5 598.93,-90 588.93,-86.5 588.93,-93.5"/>
<text text-anchor="middle" x="530.55" y="-78.8" font-family="Times New Roman,serif" font-size="14.00">chemistry graduate</text>
</g>
<!-- exposure threat&#45;&gt;grandmother reservoir -->
<g id="edge23" class="edge">
<title>exposure threat&#45;&gt;grandmother reservoir</title>
<path fill="none" stroke="black" d="M697,-143.58C697,-134.72 697,-126 697,-126 697,-126 410.5,-126 410.5,-126 410.5,-126 410.5,-118.42 410.5,-118.42"/>
<polygon fill="black" stroke="black" points="414,-118.42 410.5,-108.42 407,-118.42 414,-118.42"/>
<text text-anchor="middle" x="531.25" y="-129.8" font-family="Times New Roman,serif" font-size="14.00">novel dull</text>
</g>
<!-- brain edge&#45;&gt;release allowance -->
<g id="edge24" class="edge">
<title>brain edge&#45;&gt;release allowance</title>
<path fill="none" stroke="black" d="M838.75,-143.83C838.75,-122.5 838.75,-90 838.75,-90 838.75,-90 722.65,-90 722.65,-90"/>
<polygon fill="black" stroke="black" points="722.65,-86.5 712.65,-90 722.65,-93.5 722.65,-86.5"/>
<text text-anchor="middle" x="778.62" y="-93.8" font-family="Times New Roman,serif" font-size="14.00">laser grow</text>
</g>
<!-- convulsion salon -->
<g id="node19" class="node">
<title>convulsion salon</title>
<polygon fill="none" stroke="black" points="269.75,-36 159.75,-36 159.75,0 269.75,0 269.75,-36"/>
<text text-anchor="middle" x="214.75" y="-14.3" font-family="Times New Roman,serif" font-size="14.00">convulsion salon</text>
</g>
<!-- high spray&#45;&gt;convulsion salon -->
<g id="edge25" class="edge">
<title>high spray&#45;&gt;convulsion salon</title>
<path fill="none" stroke="black" d="M214.75,-71.83C214.75,-71.83 214.75,-46.41 214.75,-46.41"/>
<polygon fill="black" stroke="black" points="218.25,-46.41 214.75,-36.41 211.25,-46.41 218.25,-46.41"/>
<text text-anchor="middle" x="182.75" y="-47.92" font-family="Times New Roman,serif" font-size="14.00">grind scrap</text>
</g>
<!-- high spray&#45;&gt;explode miracle -->
<g id="edge26" class="edge">
<title>high spray&#45;&gt;explode miracle</title>
<path fill="none" stroke="black" d="M251.8,-90C263.41,-90 273.25,-90 273.25,-90 273.25,-90 273.25,-18 273.25,-18 273.25,-18 559.58,-18 559.58,-18"/>
<polygon fill="black" stroke="black" points="559.58,-21.5 569.58,-18 559.58,-14.5 559.58,-21.5"/>
<text text-anchor="middle" x="323.69" y="-21.8" font-family="Times New Roman,serif" font-size="14.00">danger response</text>
</g>
</g>
</svg>
