<?xml version="1.0" encoding="UTF-8" standalone="no"?>
<!DOCTYPE svg PUBLIC "-//W3C//DTD SVG 1.1//EN"
 "http://www.w3.org/Graphics/SVG/1.1/DTD/svg11.dtd">
<!-- Generated by graphviz version 2.44.1 (20200629.0846)
 -->
<!-- Title: G Pages: 1 -->
<svg width="220pt" height="80pt"
 viewBox="0.00 0.00 220.00 80.00" xmlns="http://www.w3.org/2000/svg" xmlns:xlink="http://www.w3.org/1999/xlink">
<g id="graph0" class="graph" transform="scale(1 1) rotate(0) translate(4 76)">
<title>G</title>
<polygon fill="white" stroke="transparent" points="-4,4 -4,-76 216,-76 216,4 -4,4"/>
<!-- confrontation articulate -->
<g id="node1" class="node">
<title>confrontation articulate</title>
<polygon fill="none" stroke="black" points="145,-54 0,-54 0,-18 145,-18 145,-54"/>
<text text-anchor="middle" x="72.5" y="-32.3" font-family="Times New Roman,serif" font-size="14.00">confrontation articulate</text>
</g>
<!-- confrontation articulate&#45;&gt;confrontation articulate -->
<g id="edge1" class="edge">
<title>confrontation articulate&#45;&gt;confrontation articulate</title>
<path fill="none" stroke="black" d="M72.5,-54.42C72.5,-63.28 72.5,-72 72.5,-72 72.5,-72 163,-72 163,-72 163,-72 163,0 163,0 163,0 72.5,0 72.5,0 72.5,0 72.5,-7.58 72.5,-7.58"/>
<polygon fill="black" stroke="black" points="69,-7.58 72.5,-17.58 76,-7.58 69,-7.58"/>
<text text-anchor="middle" x="187.5" y="-44.8" font-family="Times New Roman,serif" font-size="14.00">drill hide</text>
</g>
</g>
</svg>
