<?xml version="1.0" encoding="UTF-8" standalone="no"?>
<!DOCTYPE svg PUBLIC "-//W3C//DTD SVG 1.1//EN"
 "http://www.w3.org/Graphics/SVG/1.1/DTD/svg11.dtd">
<!-- Generated by graphviz version 2.44.1 (20200629.0846)
 -->
<!-- Title: G Pages: 1 -->
<svg width="475pt" height="476pt"
 viewBox="0.00 0.00 474.75 476.00" xmlns="http://www.w3.org/2000/svg" xmlns:xlink="http://www.w3.org/1999/xlink">
<g id="graph0" class="graph" transform="scale(1 1) rotate(0) translate(4 472)">
<title>G</title>
<polygon fill="white" stroke="transparent" points="-4,4 -4,-472 470.75,-472 470.75,4 -4,4"/>
<!-- shed chalk -->
<g id="node1" class="node">
<title>shed chalk</title>
<polygon fill="none" stroke="black" points="153.5,-252 66.5,-252 66.5,-216 153.5,-216 153.5,-252"/>
<text text-anchor="middle" x="110" y="-230.3" font-family="Helvetica,sans-Serif" font-size="14.00">shed chalk</text>
</g>
<!-- plaster home -->
<g id="node5" class="node">
<title>plaster home</title>
<polygon fill="none" stroke="black" points="183.5,-180 82.5,-180 82.5,-144 183.5,-144 183.5,-180"/>
<text text-anchor="middle" x="133" y="-158.3" font-family="Helvetica,sans-Serif" font-size="14.00">plaster home</text>
</g>
<!-- shed chalk&#45;&gt;plaster home -->
<g id="edge5" class="edge">
<title>shed chalk&#45;&gt;plaster home</title>
<path fill="none" stroke="black" d="M118,-215.83C118,-215.83 118,-190.41 118,-190.41"/>
<polygon fill="black" stroke="black" points="121.5,-190.41 118,-180.41 114.5,-190.41 121.5,-190.41"/>
<text text-anchor="middle" x="59" y="-191.92" font-family="Helvetica,sans-Serif" font-size="14.00">excavation temple</text>
</g>
<!-- figure inspire -->
<g id="node2" class="node">
<title>figure inspire</title>
<polygon fill="none" stroke="black" points="298.5,-468 199.5,-468 199.5,-432 298.5,-432 298.5,-468"/>
<text text-anchor="middle" x="249" y="-446.3" font-family="Helvetica,sans-Serif" font-size="14.00">figure inspire</text>
</g>
<!-- example restaurant -->
<g id="node8" class="node">
<title>example restaurant</title>
<polygon fill="none" stroke="black" points="319.5,-396 178.5,-396 178.5,-360 319.5,-360 319.5,-396"/>
<text text-anchor="middle" x="249" y="-374.3" font-family="Helvetica,sans-Serif" font-size="14.00">example restaurant</text>
</g>
<!-- figure inspire&#45;&gt;example restaurant -->
<g id="edge14" class="edge">
<title>figure inspire&#45;&gt;example restaurant</title>
<path fill="none" stroke="black" d="M249,-431.83C249,-431.83 249,-406.41 249,-406.41"/>
<polygon fill="black" stroke="black" points="252.5,-406.41 249,-396.41 245.5,-406.41 252.5,-406.41"/>
<text text-anchor="middle" x="209.5" y="-407.92" font-family="Helvetica,sans-Serif" font-size="14.00">full absense</text>
</g>
<!-- staff to -->
<g id="node3" class="node">
<title>staff to</title>
<polygon fill="none" stroke="black" points="344.5,-324 285.5,-324 285.5,-288 344.5,-288 344.5,-324"/>
<text text-anchor="middle" x="315" y="-302.3" font-family="Helvetica,sans-Serif" font-size="14.00">staff to</text>
</g>
<!-- experiment combination -->
<g id="node7" class="node">
<title>experiment combination</title>
<polygon fill="none" stroke="black" points="391.5,-36 220.5,-36 220.5,0 391.5,0 391.5,-36"/>
<text text-anchor="middle" x="306" y="-14.3" font-family="Helvetica,sans-Serif" font-size="14.00">experiment combination</text>
</g>
<!-- staff to&#45;&gt;experiment combination -->
<g id="edge12" class="edge">
<title>staff to&#45;&gt;experiment combination</title>
<path fill="none" stroke="black" d="M344.86,-306C362.63,-306 381.75,-306 381.75,-306 381.75,-306 381.75,-46.02 381.75,-46.02"/>
<polygon fill="black" stroke="black" points="385.25,-46.02 381.75,-36.02 378.25,-46.02 385.25,-46.02"/>
<text text-anchor="middle" x="424.25" y="-198.25" font-family="Helvetica,sans-Serif" font-size="14.00">buffet battery</text>
</g>
<!-- quote selection -->
<g id="node9" class="node">
<title>quote selection</title>
<polygon fill="none" stroke="black" points="360.5,-252 245.5,-252 245.5,-216 360.5,-216 360.5,-252"/>
<text text-anchor="middle" x="303" y="-230.3" font-family="Helvetica,sans-Serif" font-size="14.00">quote selection</text>
</g>
<!-- staff to&#45;&gt;quote selection -->
<g id="edge4" class="edge">
<title>staff to&#45;&gt;quote selection</title>
<path fill="none" stroke="black" d="M315,-287.83C315,-287.83 315,-262.41 315,-262.41"/>
<polygon fill="black" stroke="black" points="318.5,-262.41 315,-252.41 311.5,-262.41 318.5,-262.41"/>
<text text-anchor="middle" x="277" y="-263.92" font-family="Helvetica,sans-Serif" font-size="14.00">suffer burial</text>
</g>
<!-- stunning yearn -->
<g id="node4" class="node">
<title>stunning yearn</title>
<polygon fill="none" stroke="black" points="160.5,-396 47.5,-396 47.5,-360 160.5,-360 160.5,-396"/>
<text text-anchor="middle" x="104" y="-374.3" font-family="Helvetica,sans-Serif" font-size="14.00">stunning yearn</text>
</g>
<!-- tolerant true -->
<g id="node12" class="node">
<title>tolerant true</title>
<polygon fill="none" stroke="black" points="228.5,-324 135.5,-324 135.5,-288 228.5,-288 228.5,-324"/>
<text text-anchor="middle" x="182" y="-302.3" font-family="Helvetica,sans-Serif" font-size="14.00">tolerant true</text>
</g>
<!-- stunning yearn&#45;&gt;tolerant true -->
<g id="edge1" class="edge">
<title>stunning yearn&#45;&gt;tolerant true</title>
<path fill="none" stroke="black" d="M148,-359.83C148,-359.83 148,-334.41 148,-334.41"/>
<polygon fill="black" stroke="black" points="151.5,-334.41 148,-324.41 144.5,-334.41 151.5,-334.41"/>
<text text-anchor="middle" x="111.5" y="-335.92" font-family="Helvetica,sans-Serif" font-size="14.00">lung ribbon</text>
</g>
<!-- closed disk -->
<g id="node6" class="node">
<title>closed disk</title>
<polygon fill="none" stroke="black" points="426.5,-396 337.5,-396 337.5,-360 426.5,-360 426.5,-396"/>
<text text-anchor="middle" x="382" y="-374.3" font-family="Helvetica,sans-Serif" font-size="14.00">closed disk</text>
</g>
<!-- closed disk&#45;&gt;staff to -->
<g id="edge3" class="edge">
<title>closed disk&#45;&gt;staff to</title>
<path fill="none" stroke="black" d="M341,-359.83C341,-359.83 341,-334.41 341,-334.41"/>
<polygon fill="black" stroke="black" points="344.5,-334.41 341,-324.41 337.5,-334.41 344.5,-334.41"/>
<text text-anchor="middle" x="297.5" y="-335.92" font-family="Helvetica,sans-Serif" font-size="14.00">funny jealous</text>
</g>
<!-- experiment combination&#45;&gt;quote selection -->
<g id="edge13" class="edge">
<title>experiment combination&#45;&gt;quote selection</title>
<path fill="none" stroke="black" d="M234.25,-36.27C234.25,-87.36 234.25,-228 234.25,-228 234.25,-228 235.35,-228 235.35,-228"/>
<polygon fill="black" stroke="black" points="235.3,-231.5 245.3,-228 235.3,-224.5 235.3,-231.5"/>
<text text-anchor="middle" x="185.25" y="-121.49" font-family="Helvetica,sans-Serif" font-size="14.00">colin fisherman</text>
</g>
<!-- example restaurant&#45;&gt;staff to -->
<g id="edge8" class="edge">
<title>example restaurant&#45;&gt;staff to</title>
<path fill="none" stroke="black" d="M302.5,-359.83C302.5,-359.83 302.5,-334.41 302.5,-334.41"/>
<polygon fill="black" stroke="black" points="306,-334.41 302.5,-324.41 299,-334.41 306,-334.41"/>
<text text-anchor="middle" x="260" y="-350.92" font-family="Helvetica,sans-Serif" font-size="14.00">mouse haunt</text>
</g>
<!-- example restaurant&#45;&gt;tolerant true -->
<g id="edge10" class="edge">
<title>example restaurant&#45;&gt;tolerant true</title>
<path fill="none" stroke="black" d="M203.5,-359.83C203.5,-359.83 203.5,-334.41 203.5,-334.41"/>
<polygon fill="black" stroke="black" points="207,-334.41 203.5,-324.41 200,-334.41 207,-334.41"/>
<text text-anchor="middle" x="203.5" y="-335.92" font-family="Helvetica,sans-Serif" font-size="14.00">thanks precision</text>
</g>
<!-- quote selection&#45;&gt;plaster home -->
<g id="edge9" class="edge">
<title>quote selection&#45;&gt;plaster home</title>
<path fill="none" stroke="black" d="M245.45,-240C210.86,-240 173.5,-240 173.5,-240 173.5,-240 173.5,-190.09 173.5,-190.09"/>
<polygon fill="black" stroke="black" points="177,-190.09 173.5,-180.09 170,-190.09 177,-190.09"/>
<text text-anchor="middle" x="204.77" y="-228.8" font-family="Helvetica,sans-Serif" font-size="14.00">appoint prey</text>
</g>
<!-- attachment insure -->
<g id="node11" class="node">
<title>attachment insure</title>
<polygon fill="none" stroke="black" points="372,-180 240,-180 240,-144 372,-144 372,-180"/>
<text text-anchor="middle" x="306" y="-158.3" font-family="Helvetica,sans-Serif" font-size="14.00">attachment insure</text>
</g>
<!-- quote selection&#45;&gt;attachment insure -->
<g id="edge11" class="edge">
<title>quote selection&#45;&gt;attachment insure</title>
<path fill="none" stroke="black" d="M303,-215.83C303,-215.83 303,-190.41 303,-190.41"/>
<polygon fill="black" stroke="black" points="306.5,-190.41 303,-180.41 299.5,-190.41 306.5,-190.41"/>
<text text-anchor="middle" x="252" y="-191.92" font-family="Helvetica,sans-Serif" font-size="14.00">overview ample</text>
</g>
<!-- honest satisfied -->
<g id="node10" class="node">
<title>honest satisfied</title>
<polygon fill="none" stroke="black" points="365,-108 247,-108 247,-72 365,-72 365,-108"/>
<text text-anchor="middle" x="306" y="-86.3" font-family="Helvetica,sans-Serif" font-size="14.00">honest satisfied</text>
</g>
<!-- honest satisfied&#45;&gt;experiment combination -->
<g id="edge6" class="edge">
<title>honest satisfied&#45;&gt;experiment combination</title>
<path fill="none" stroke="black" d="M306,-71.83C306,-71.83 306,-46.41 306,-46.41"/>
<polygon fill="black" stroke="black" points="309.5,-46.41 306,-36.41 302.5,-46.41 309.5,-46.41"/>
<text text-anchor="middle" x="268" y="-47.92" font-family="Helvetica,sans-Serif" font-size="14.00">relief deport</text>
</g>
<!-- attachment insure&#45;&gt;honest satisfied -->
<g id="edge2" class="edge">
<title>attachment insure&#45;&gt;honest satisfied</title>
<path fill="none" stroke="black" d="M306,-143.83C306,-143.83 306,-118.41 306,-118.41"/>
<polygon fill="black" stroke="black" points="309.5,-118.41 306,-108.41 302.5,-118.41 309.5,-118.41"/>
<text text-anchor="middle" x="343" y="-119.92" font-family="Helvetica,sans-Serif" font-size="14.00">tell prestige</text>
</g>
<!-- tolerant true&#45;&gt;plaster home -->
<g id="edge7" class="edge">
<title>tolerant true&#45;&gt;plaster home</title>
<path fill="none" stroke="black" d="M163.5,-287.76C163.5,-287.76 163.5,-190.09 163.5,-190.09"/>
<polygon fill="black" stroke="black" points="167,-190.09 163.5,-180.09 160,-190.09 167,-190.09"/>
<text text-anchor="middle" x="207.5" y="-242.73" font-family="Helvetica,sans-Serif" font-size="14.00">impound grief</text>
</g>
</g>
</svg>
